<svg width="637" height="434" viewBox="0 0 637 434" fill="none" xmlns="http://www.w3.org/2000/svg">
<g clip-path="url(#clip0)">
<path d="M95.6275 352.582C91.0475 370.019 74.9989 380.916 74.9989 380.916C74.9989 380.916 66.3759 363.542 70.9559 346.105C75.5358 328.667 91.5844 317.77 91.5844 317.77C91.5844 317.77 100.207 335.145 95.6275 352.582Z" fill="#3F3D56"/>
<path d="M88.6807 348.893C75.853 361.564 74.4178 380.906 74.4178 380.906C74.4178 380.906 93.7805 379.706 106.608 367.035C119.436 354.364 120.871 335.022 120.871 335.022C120.871 335.022 101.508 336.222 88.6807 348.893Z" fill="#D1C769"/>
<path d="M104.767 375.811H54.5899C49.0862 375.811 44.6245 380.271 44.6245 385.774V395.674C44.6245 401.177 49.0862 405.637 54.5899 405.637H104.767C110.271 405.637 114.732 401.177 114.732 395.674V385.774C114.732 380.271 110.271 375.811 104.767 375.811Z" fill="#D1C769"/>
<g opacity="0.7">
<path opacity="0.7" d="M587.2 356.757V346.01H533.451V395.718C533.451 397.094 533.722 398.456 534.249 399.728C534.775 400.999 535.547 402.154 536.521 403.127C537.494 404.1 538.649 404.872 539.921 405.399C541.193 405.925 542.555 406.196 543.932 406.196H576.719C579.499 406.196 582.165 405.092 584.13 403.127C586.096 401.162 587.2 398.497 587.2 395.718V384.701C590.902 384.694 594.449 383.219 597.064 380.599C599.679 377.98 601.148 374.43 601.148 370.729C601.148 367.028 599.679 363.479 597.064 360.859C594.449 358.24 590.902 356.765 587.2 356.757ZM587.2 379.327V362.131C589.481 362.131 591.668 363.037 593.281 364.649C594.894 366.262 595.8 368.449 595.8 370.729C595.8 373.01 594.894 375.197 593.281 376.809C591.668 378.421 589.481 379.327 587.2 379.327Z" fill="url(#paint0_linear)"/>
</g>
<path d="M585.471 358.44C582.947 358.44 580.48 359.188 578.382 360.59C576.284 361.991 574.648 363.984 573.682 366.315C572.717 368.646 572.464 371.211 572.956 373.685C573.449 376.16 574.664 378.433 576.448 380.217C578.233 382.001 580.506 383.216 582.981 383.708C585.457 384.201 588.022 383.948 590.354 382.983C592.685 382.017 594.678 380.382 596.08 378.284C597.482 376.186 598.23 373.72 598.23 371.197C598.23 367.813 596.886 364.569 594.493 362.176C592.1 359.784 588.855 358.44 585.471 358.44ZM585.471 379.047C583.918 379.047 582.4 378.587 581.108 377.724C579.817 376.861 578.811 375.635 578.216 374.201C577.622 372.766 577.467 371.188 577.77 369.665C578.072 368.142 578.82 366.743 579.918 365.646C581.017 364.548 582.416 363.8 583.939 363.497C585.462 363.194 587.041 363.35 588.476 363.944C589.91 364.538 591.137 365.544 592 366.835C592.862 368.126 593.323 369.644 593.323 371.197C593.323 373.279 592.496 375.275 591.023 376.748C589.55 378.22 587.553 379.047 585.471 379.047Z" fill="#D1C769"/>
<path opacity="0.1" d="M585.471 358.44C582.947 358.44 580.48 359.188 578.382 360.59C576.284 361.991 574.648 363.984 573.682 366.315C572.717 368.646 572.464 371.211 572.956 373.685C573.449 376.16 574.664 378.433 576.448 380.217C578.233 382.001 580.506 383.216 582.981 383.708C585.457 384.201 588.022 383.948 590.354 382.983C592.685 382.017 594.678 380.382 596.08 378.284C597.482 376.186 598.23 373.72 598.23 371.197C598.23 367.813 596.886 364.569 594.493 362.176C592.1 359.784 588.855 358.44 585.471 358.44ZM585.471 379.047C583.918 379.047 582.4 378.587 581.108 377.724C579.817 376.861 578.811 375.635 578.216 374.201C577.622 372.766 577.467 371.188 577.77 369.665C578.072 368.142 578.82 366.743 579.918 365.646C581.017 364.548 582.416 363.8 583.939 363.497C585.462 363.194 587.041 363.35 588.476 363.944C589.91 364.538 591.137 365.544 592 366.835C592.862 368.126 593.323 369.644 593.323 371.197C593.323 373.279 592.496 375.275 591.023 376.748C589.55 378.22 587.553 379.047 585.471 379.047Z" fill="black"/>
<path d="M536.395 348.627H585.471V397.188C585.471 398.883 584.797 400.509 583.598 401.707C582.399 402.906 580.773 403.58 579.077 403.58H542.789C541.093 403.58 539.467 402.906 538.268 401.707C537.069 400.509 536.395 398.883 536.395 397.188V348.627Z" fill="#D1C769"/>
<path d="M637 403.58H0V425.168H637V403.58Z" fill="#E0E0E0"/>
<g opacity="0.7">
<path opacity="0.7" d="M418.99 259.131C412.162 234.355 373.457 216.263 344.335 212.251C344.339 212.069 344.349 211.887 344.349 211.704V190.495C344.38 190.484 344.411 190.474 344.442 190.463V189.659C354.778 185.816 364.105 179.674 371.717 171.697C379.329 163.721 385.028 154.118 388.383 143.616C390.183 140.362 391.75 136.985 393.071 133.51C396.18 132.378 398.528 127.252 398.528 121.094C398.54 118.987 398.244 116.89 397.651 114.868C398.032 111.732 398.227 108.575 398.234 105.415C398.246 94.3696 395.935 83.4445 391.45 73.3494C386.966 63.2543 380.408 54.2147 372.204 46.8174C372.447 45.5485 372.53 44.254 372.45 42.9644C371.791 32.785 360.916 25.8693 350.723 25.4068C353.416 22.3531 355.186 18.5982 355.828 14.5785C356.47 10.5588 355.958 6.43949 354.351 2.6994C347.852 12.1656 334.509 13.1719 323.025 13.2463C327.981 11.3278 330.21 4.46332 327.328 0C315.326 16.0841 291.929 19.0625 277.653 33.1687C274.543 36.2541 271.937 39.8084 269.929 43.7018C260.652 51.0911 253.161 60.4779 248.016 71.1631C242.871 81.8483 240.203 93.5565 240.212 105.415C240.218 108.547 240.409 111.675 240.784 114.783C240.172 116.83 239.867 118.957 239.879 121.094C239.879 127.281 242.249 132.422 245.379 133.522C246.706 137.009 248.28 140.398 250.089 143.662C253.432 154.103 259.093 163.654 266.649 171.599C274.205 179.545 283.46 185.679 293.722 189.543V211.704C293.722 211.874 293.731 212.043 293.735 212.212C264.502 216.155 225.487 234.39 218.721 259.365C212.877 280.933 206.64 304.619 203.536 318.526C230.138 337.214 285.957 348.187 320.939 348.187C354.175 348.187 408.5 338.283 434.318 321.266C431.522 305.986 425.087 281.259 418.99 259.131Z" fill="url(#paint1_linear)"/>
</g>
<path d="M320.868 342.035C352.93 342.035 405.335 332.481 430.241 316.066C427.543 301.325 421.336 277.473 415.454 256.126C407.963 228.94 360.683 210.093 332.478 210.093H305.299C277.007 210.093 229.659 229.05 222.262 256.352C216.625 277.157 210.608 300.007 207.614 313.422C233.276 331.45 287.122 342.035 320.868 342.035Z" fill="#D1C769"/>
<path d="M319.212 184.045C361.307 184.045 395.431 149.928 395.431 107.842C395.431 65.7566 361.307 31.6394 319.212 31.6394C277.118 31.6394 242.993 65.7566 242.993 107.842C242.993 149.928 277.118 184.045 319.212 184.045Z" fill="#353230"/>
<path opacity="0.1" d="M294.613 171.313H343.45V210.375C343.45 216.85 340.878 223.059 336.298 227.638C331.719 232.216 325.508 234.788 319.031 234.788H319.031C312.555 234.788 306.344 232.216 301.765 227.638C297.185 223.059 294.613 216.85 294.613 210.375V171.313H294.613Z" fill="black"/>
<path d="M301.618 169.504H336.445C338.303 169.504 340.085 170.242 341.398 171.556C342.712 172.869 343.45 174.651 343.45 176.508V208.566C343.45 215.041 340.878 221.251 336.298 225.829C331.719 230.408 325.508 232.98 319.031 232.98H319.031C312.555 232.98 306.344 230.408 301.765 225.829C297.185 221.251 294.613 215.041 294.613 208.566V176.508C294.613 174.651 295.351 172.869 296.664 171.556C297.978 170.242 299.76 169.504 301.618 169.504Z" fill="#FCBEA3"/>
<path opacity="0.1" d="M294.703 189.75C310.443 195.629 327.769 195.677 343.541 189.885V183.886H294.703V189.75Z" fill="black"/>
<path d="M319.212 193.019C357.873 193.019 389.213 161.685 389.213 123.033C389.213 84.3809 357.873 53.0471 319.212 53.0471C280.552 53.0471 249.212 84.3809 249.212 123.033C249.212 161.685 280.552 193.019 319.212 193.019Z" fill="#FCBEA3"/>
<path opacity="0.1" d="M269.351 59.3734C269.351 59.3734 298.852 119.243 382.071 84.466L362.697 54.0907L328.353 41.7645L269.351 59.3734Z" fill="black"/>
<path d="M269.351 58.4929C269.351 58.4929 298.852 118.363 382.071 83.5855L362.697 53.2102L328.353 40.884L269.351 58.4929Z" fill="#353230"/>
<path d="M269.089 54.4482C271.077 48.2914 274.515 42.7017 279.112 38.1485C292.883 24.5408 315.453 21.6677 327.032 6.15186C329.812 10.4575 327.661 17.0794 322.881 18.9301C333.959 18.8583 346.83 17.8876 353.099 8.75588C354.649 12.3638 355.143 16.3376 354.524 20.2153C353.905 24.0929 352.197 27.7152 349.6 30.6609C359.432 31.1071 369.923 37.7784 370.558 47.598C370.982 54.14 366.879 60.3338 361.502 64.0856C356.125 67.8374 349.619 69.5597 343.216 70.9711C324.525 75.0914 256.892 92.3608 269.089 54.4482Z" fill="#353230"/>
<path d="M249.184 135.173C252.78 135.173 255.695 129.708 255.695 122.966C255.695 116.225 252.78 110.76 249.184 110.76C245.587 110.76 242.672 116.225 242.672 122.966C242.672 129.708 245.587 135.173 249.184 135.173Z" fill="#FCBEA3"/>
<path d="M389.204 135.173C392.8 135.173 395.715 129.708 395.715 122.966C395.715 116.225 392.8 110.76 389.204 110.76C385.607 110.76 382.692 116.225 382.692 122.966C382.692 129.708 385.607 135.173 389.204 135.173Z" fill="#FCBEA3"/>
<g opacity="0.7">
<path opacity="0.7" d="M444.44 247.619H192.56C187.309 247.619 183.052 251.875 183.052 257.125V394.074C183.052 399.324 187.309 403.58 192.56 403.58H444.44C449.691 403.58 453.948 399.324 453.948 394.074V257.125C453.948 251.875 449.691 247.619 444.44 247.619Z" fill="url(#paint2_linear)"/>
</g>
<path d="M431.444 250.496H205.556C195.837 250.496 187.959 258.373 187.959 268.089V385.987C187.959 395.703 195.837 403.58 205.556 403.58H431.444C441.163 403.58 449.041 395.703 449.041 385.987V268.089C449.041 258.373 441.163 250.496 431.444 250.496Z" fill="#535461"/>
<path d="M318.5 335.87C323.379 335.87 327.334 331.916 327.334 327.038C327.334 322.16 323.379 318.206 318.5 318.206C313.621 318.206 309.666 322.16 309.666 327.038C309.666 331.916 313.621 335.87 318.5 335.87Z" fill="white"/>
<path d="M610.009 425.168H26.9916V434H610.009V425.168Z" fill="#E0E0E0"/>
<path opacity="0.1" d="M610.009 425.168H26.9916V428.112H610.009V425.168Z" fill="black"/>
<path opacity="0.1" d="M576.637 348.627V394.012C576.637 396.549 575.629 398.983 573.834 400.777C572.04 402.572 569.605 403.58 567.067 403.58H571.975C574.513 403.58 576.947 402.572 578.742 400.777C580.536 398.983 581.545 396.549 581.545 394.012V348.627H576.637Z" fill="black"/>
<path d="M546.08 312.047C545.252 312.188 544.318 312.412 543.912 313.147C543.269 314.314 544.435 315.629 545.5 316.431C547.466 317.912 549.539 319.367 550.876 321.434C552.213 323.502 552.633 326.387 551.171 328.368C549.263 330.955 544.711 331.511 544.271 334.695C543.988 336.739 545.755 338.484 547.546 339.509C551.967 342.041 557.665 342.716 560.867 346.678C562.192 343.955 565.155 342.381 568.108 341.708C571.061 341.036 574.129 341.086 577.123 340.63C578.09 340.483 579.179 340.188 579.611 339.311C580.448 337.613 578.063 335.576 578.886 333.871C579.513 332.573 581.353 332.674 582.698 332.154C584.887 331.308 585.789 328.492 585.168 326.229C584.547 323.967 582.792 322.198 580.947 320.749C575.973 316.842 569.994 314.544 563.945 312.891C561.132 312.123 557.83 310.917 554.908 310.801C552.088 310.688 548.871 311.569 546.08 312.047Z" fill="#D3D0D0"/>
</g>
<defs>
<linearGradient id="paint0_linear" x1="567.313" y1="406.196" x2="567.313" y2="346.01" gradientUnits="userSpaceOnUse">
<stop stop-color="#808080" stop-opacity="0.25"/>
<stop offset="0.53514" stop-color="#808080" stop-opacity="0.12"/>
<stop offset="1" stop-color="#808080" stop-opacity="0.1"/>
</linearGradient>
<linearGradient id="paint1_linear" x1="138823" y1="226358" x2="138823" y2="41434.2" gradientUnits="userSpaceOnUse">
<stop stop-color="#808080" stop-opacity="0.25"/>
<stop offset="0.53514" stop-color="#808080" stop-opacity="0.12"/>
<stop offset="1" stop-color="#808080" stop-opacity="0.1"/>
</linearGradient>
<linearGradient id="paint2_linear" x1="131763" y1="96256.8" x2="131763" y2="59154.7" gradientUnits="userSpaceOnUse">
<stop stop-color="#808080" stop-opacity="0.25"/>
<stop offset="0.53514" stop-color="#808080" stop-opacity="0.12"/>
<stop offset="1" stop-color="#808080" stop-opacity="0.1"/>
</linearGradient>
<clipPath id="clip0">
<rect width="637" height="434" fill="white"/>
</clipPath>
</defs>
</svg>
